<?xml version="1.0" encoding="UTF-8" standalone="no"?>
<!-- Generator: Adobe Illustrator 23.1.1, SVG Export Plug-In . SVG Version: 6.00 Build 0)  -->

<svg
   xmlns:dc="http://purl.org/dc/elements/1.1/"
   xmlns:cc="http://creativecommons.org/ns#"
   xmlns:rdf="http://www.w3.org/1999/02/22-rdf-syntax-ns#"
   xmlns:svg="http://www.w3.org/2000/svg"
   xmlns="http://www.w3.org/2000/svg"
   xmlns:sodipodi="http://sodipodi.sourceforge.net/DTD/sodipodi-0.dtd"
   xmlns:inkscape="http://www.inkscape.org/namespaces/inkscape"
   version="1.1"
   id="Layer_1"
   x="0px"
   y="0px"
   viewBox="0 0 1000 1000"
   style="enable-background:new 0 0 1000 1000;"
   xml:space="preserve"
   sodipodi:docname="403.svg"
   inkscape:version="0.92.5 (0.92.5+69)"><metadata
   id="metadata312"><rdf:RDF><cc:Work
       rdf:about=""><dc:format>image/svg+xml</dc:format><dc:type
         rdf:resource="http://purl.org/dc/dcmitype/StillImage" /><dc:title></dc:title></cc:Work></rdf:RDF></metadata><defs
   id="defs310">
	
	
	
	
</defs><sodipodi:namedview
   pagecolor="#ffffff"
   bordercolor="#666666"
   borderopacity="1"
   objecttolerance="10"
   gridtolerance="10"
   guidetolerance="10"
   inkscape:pageopacity="0"
   inkscape:pageshadow="2"
   inkscape:window-width="1366"
   inkscape:window-height="666"
   id="namedview308"
   showgrid="false"
   inkscape:zoom="0.472"
   inkscape:cx="440.45767"
   inkscape:cy="539.10233"
   inkscape:window-x="0"
   inkscape:window-y="27"
   inkscape:window-maximized="1"
   inkscape:current-layer="layer3" />
<style
   type="text/css"
   id="style2">
	.st0{fill:#FF2756;}
	.st1{fill:#EEF2F4;}
	.st2{opacity:0.34;fill:#353535;}
	.st3{fill:#EDBEC4;}
	.st4{fill:#F4D7DE;}
	.st5{fill:none;stroke:#3A3842;stroke-width:6;stroke-linecap:round;stroke-linejoin:round;stroke-miterlimit:10;}
	.st6{fill:#3A3842;}
	.st7{fill:#DBA1A9;}
	.st8{fill:#CAB5EA;}
	.st9{fill:#33313A;}
	.st10{fill:none;stroke:#EDBEC4;stroke-width:6;stroke-linecap:round;stroke-linejoin:round;stroke-miterlimit:10;}
	.st11{fill:none;stroke:#3A3842;stroke-width:4;stroke-linecap:round;stroke-linejoin:round;stroke-miterlimit:10;}
	.st12{fill:#F26640;}
	.st13{fill:#5EB755;}
	.st14{fill:#6A82EA;}
	.st15{fill:#EFAD43;}
	.st16{fill:none;stroke:#FFFFFF;stroke-width:8;stroke-linecap:round;stroke-linejoin:round;stroke-miterlimit:10;}
	.st17{opacity:0.34;fill:#3A3842;}
	.st18{fill:#E8B5BB;}
	.st19{fill:#F2CCD4;}
</style>












































<g
   inkscape:groupmode="layer"
   id="layer1"
   inkscape:label="background"><g
     transform="translate(8.4381492,-15.789401)"
     id="g292"><path
       inkscape:connector-curvature="0"
       d="m 675.2,218.9 c -55.7,-83.8 -265.5,-64.2 -283.5,-9.4 -7.9,24.2 26.9,39.4 17.7,68 -10.8,33.6 -63.6,27.6 -154.9,96.2 -15.5,11.7 -110,82.6 -109,177.9 0.9,88.9 74.5,175.9 154.3,192.8 81.7,17.3 113.5,-50.2 196.4,-33.9 C 599.3,730.9 611.5,844 673.9,844 794.8,844.1 920.6,417 834.8,361.5 800.9,339.6 746.9,384.1 709,352.1 672.4,321.3 706.7,266.2 675.2,218.9 Z"
       class="st2"
       id="XMLID_46_-3"
       style="opacity:0.34000017;fill:#353535" /><path
       inkscape:connector-curvature="0"
       d="m 431.4,763.7 c -13.6,14.9 -5,39.9 12.7,53.9 14.6,11.6 39.2,18.7 56.6,10.2 21.7,-10.5 23.9,-41.1 4.3,-59.8 -20,-19.2 -58.2,-21.3 -73.6,-4.3 z"
       class="st2"
       id="XMLID_47_-5"
       style="opacity:0.34000017;fill:#353535" /><path
       inkscape:connector-curvature="0"
       d="m 293,229.7 c -17.1,4.7 -21.6,52.6 -10,62 31.5,25.4 53.6,0.7 40,-34 -6.2,-15.9 -19.3,-31 -30,-28 z"
       class="st2"
       id="XMLID_48_-6"
       style="opacity:0.34000017;fill:#353535" /><path
       inkscape:connector-curvature="0"
       d="m 734.2,265.8 c -17.1,1.9 -21.6,21 -10,24.8 31.5,10.1 53.6,0.3 40,-13.6 -6.2,-6.3 -19.3,-12.3 -30,-11.2 z"
       class="st2"
       id="XMLID_50_-2"
       style="opacity:0.34000017;fill:#353535" /></g></g><g
   inkscape:groupmode="layer"
   id="layer2"
   inkscape:label="pc"><path
     style="opacity:0.34000011;fill:#353535"
     inkscape:connector-curvature="0"
     id="XMLID_74_"
     class="st2"
     d="M 738.7,678.2 H 279.3 c -10.5,0 -19,-8.5 -19,-19 v 0 c 0,-10.5 8.5,-19 19,-19 h 459.3 c 10.5,0 19,8.5 19,19 v 0 c 0.1,10.5 -8.4,19 -18.9,19 z" /><path
     style="fill:#edbec4"
     inkscape:connector-curvature="0"
     id="XMLID_28_"
     class="st3"
     d="m 381.8,520.8 v -200 c 0,-6.6 5.4,-12 12,-12 h 220 c 6.6,0 12,5.4 12,12 v 200 c 0,6.6 -5.4,12 -12,12 h -220 c -6.7,0 -12,-5.4 -12,-12 z" /><path
     style="fill:#f4d7de"
     inkscape:connector-curvature="0"
     id="XMLID_31_"
     class="st4"
     d="m 389.8,511.5 v -188 c 0,-2.8 2.2,-5 5,-5 h 218 c 2.8,0 5,2.2 5,5 v 188 c 0,2.8 -2.2,5 -5,5 h -218 c -2.8,0 -5,-2.3 -5,-5 z" /><path
     style="fill:none;stroke:#3a3842;stroke-width:6;stroke-linecap:round;stroke-linejoin:round;stroke-miterlimit:10"
     inkscape:connector-curvature="0"
     id="XMLID_16_"
     class="st5"
     d="m 381.8,520.8 v -200 c 0,-6.6 5.4,-12 12,-12 h 220 c 6.6,0 12,5.4 12,12 v 200 c 0,6.6 -5.4,12 -12,12 h -220 c -6.7,0 -12,-5.4 -12,-12 z" /><path
     style="fill:#edbec4"
     inkscape:connector-curvature="0"
     id="XMLID_32_"
     class="st3"
     d="m 399.8,483.5 v -146 c 0,-3.9 3.1,-7 7,-7 h 194 c 3.9,0 7,3.1 7,7 v 146 c 0,3.9 -3.1,7 -7,7 h -194 c -3.9,0 -7,-3.1 -7,-7 z" /><path
     style="fill:#3a3842"
     inkscape:connector-curvature="0"
     id="XMLID_30_"
     class="st6"
     d="m 428.8,481.5 c -12.1,0 -22,-9.9 -22,-22 v -98 c 0,-12.1 9.9,-22 22,-22 h 150 c 12.1,0 22,9.9 22,22 v 98 c 0,12.1 -9.9,22 -22,22 z" /><path
     style="fill:#edbec4"
     inkscape:connector-curvature="0"
     id="XMLID_8_"
     class="st3"
     d="m 582.8,550.8 h -158 c -4.4,0 -8,-3.6 -8,-8 v -10 h 174 v 10 c 0,4.4 -3.6,8 -8,8 z" /><rect
     style="fill:#dba1a9"
     id="XMLID_29_"
     x="416.79999"
     y="532.79999"
     class="st7"
     width="174"
     height="9" /><path
     style="fill:none;stroke:#3a3842;stroke-width:6;stroke-linecap:round;stroke-linejoin:round;stroke-miterlimit:10"
     inkscape:connector-curvature="0"
     id="XMLID_6_"
     class="st5"
     d="m 582.8,550.8 h -158 c -4.4,0 -8,-3.6 -8,-8 v -10 h 174 v 10 c 0,4.4 -3.6,8 -8,8 z" /><path
     style="fill:#edbec4"
     inkscape:connector-curvature="0"
     id="XMLID_7_"
     class="st3"
     d="m 675.8,646.8 h -344 c -4.4,0 -8,-3.6 -8,-8 v -80 c 0,-4.4 3.6,-8 8,-8 h 344 c 4.4,0 8,3.6 8,8 v 80 c 0,4.4 -3.6,8 -8,8 z" /><path
     style="fill:none;stroke:#3a3842;stroke-width:6;stroke-linecap:round;stroke-linejoin:round;stroke-miterlimit:10"
     inkscape:connector-curvature="0"
     id="XMLID_4_"
     class="st5"
     d="m 675.8,646.8 h -344 c -4.4,0 -8,-3.6 -8,-8 v -80 c 0,-4.4 3.6,-8 8,-8 h 344 c 4.4,0 8,3.6 8,8 v 80 c 0,4.4 -3.6,8 -8,8 z" /><path
     style="fill:#f4d7de"
     inkscape:connector-curvature="0"
     id="XMLID_34_"
     class="st4"
     d="m 336.2,630.8 v -64 c 0,-4.4 3.6,-8 8,-8 h 319.1 c 4.4,0 8,3.6 8,8 v 64 c 0,4.4 -3.6,8 -8,8 H 344.2 c -4.4,0 -8,-3.6 -8,-8 z" /><circle
     style="fill:#cab5ea"
     id="XMLID_37_"
     class="st8"
     cx="574"
     cy="503.10001"
     r="7.5" /><circle
     style="fill:#3a3842"
     id="XMLID_1_"
     class="st6"
     cx="574"
     cy="503.10001"
     r="6.5" /><circle
     style="fill:#33313a"
     id="XMLID_39_"
     class="st9"
     cx="574"
     cy="503.10001"
     r="5.5999999" /><g
     id="XMLID_24_">
	<g
   id="XMLID_136_">
		<line
   style="fill:none;stroke:#edbec4;stroke-width:6;stroke-linecap:round;stroke-linejoin:round;stroke-miterlimit:10"
   id="XMLID_137_"
   class="st10"
   x1="444.20001"
   y1="604.29999"
   x2="444.20001"
   y2="631.79999" />
	</g>
	<g
   id="XMLID_133_">
		<line
   style="fill:none;stroke:#edbec4;stroke-width:6;stroke-linecap:round;stroke-linejoin:round;stroke-miterlimit:10"
   id="XMLID_134_"
   class="st10"
   x1="434.20001"
   y1="604.29999"
   x2="434.20001"
   y2="631.79999" />
	</g>
	<g
   id="XMLID_130_">
		<line
   style="fill:none;stroke:#edbec4;stroke-width:6;stroke-linecap:round;stroke-linejoin:round;stroke-miterlimit:10"
   id="XMLID_131_"
   class="st10"
   x1="424.20001"
   y1="604.29999"
   x2="424.20001"
   y2="631.79999" />
	</g>
	<g
   id="XMLID_127_">
		<line
   style="fill:none;stroke:#edbec4;stroke-width:6;stroke-linecap:round;stroke-linejoin:round;stroke-miterlimit:10"
   id="XMLID_128_"
   class="st10"
   x1="414.20001"
   y1="604.29999"
   x2="414.20001"
   y2="631.79999" />
	</g>
	<g
   id="XMLID_124_">
		<line
   style="fill:none;stroke:#edbec4;stroke-width:6;stroke-linecap:round;stroke-linejoin:round;stroke-miterlimit:10"
   id="XMLID_125_"
   class="st10"
   x1="404.20001"
   y1="604.29999"
   x2="404.20001"
   y2="631.79999" />
	</g>
	<g
   id="XMLID_121_">
		<line
   style="fill:none;stroke:#edbec4;stroke-width:6;stroke-linecap:round;stroke-linejoin:round;stroke-miterlimit:10"
   id="XMLID_122_"
   class="st10"
   x1="394.20001"
   y1="604.29999"
   x2="394.20001"
   y2="631.79999" />
	</g>
	<g
   id="XMLID_118_">
		<line
   style="fill:none;stroke:#edbec4;stroke-width:6;stroke-linecap:round;stroke-linejoin:round;stroke-miterlimit:10"
   id="XMLID_119_"
   class="st10"
   x1="384.20001"
   y1="604.29999"
   x2="384.20001"
   y2="631.79999" />
	</g>
	<g
   id="XMLID_115_">
		<line
   style="fill:none;stroke:#edbec4;stroke-width:6;stroke-linecap:round;stroke-linejoin:round;stroke-miterlimit:10"
   id="XMLID_116_"
   class="st10"
   x1="374.20001"
   y1="604.29999"
   x2="374.20001"
   y2="631.79999" />
	</g>
	<g
   id="XMLID_112_">
		<line
   style="fill:none;stroke:#edbec4;stroke-width:6;stroke-linecap:round;stroke-linejoin:round;stroke-miterlimit:10"
   id="XMLID_113_"
   class="st10"
   x1="364.20001"
   y1="604.29999"
   x2="364.20001"
   y2="631.79999" />
	</g>
</g><g
     id="XMLID_42_">
	<g
   id="XMLID_60_">
		<line
   style="fill:none;stroke:#3a3842;stroke-width:4;stroke-linecap:round;stroke-linejoin:round;stroke-miterlimit:10"
   id="XMLID_61_"
   class="st11"
   x1="445.10001"
   y1="604.29999"
   x2="445.10001"
   y2="631.79999" />
	</g>
	<g
   id="XMLID_58_">
		<line
   style="fill:none;stroke:#3a3842;stroke-width:4;stroke-linecap:round;stroke-linejoin:round;stroke-miterlimit:10"
   id="XMLID_59_"
   class="st11"
   x1="435.10001"
   y1="604.29999"
   x2="435.10001"
   y2="631.79999" />
	</g>
	<g
   id="XMLID_56_">
		<line
   style="fill:none;stroke:#3a3842;stroke-width:4;stroke-linecap:round;stroke-linejoin:round;stroke-miterlimit:10"
   id="XMLID_57_"
   class="st11"
   x1="425.10001"
   y1="604.29999"
   x2="425.10001"
   y2="631.79999" />
	</g>
	<g
   id="XMLID_54_">
		<line
   style="fill:none;stroke:#3a3842;stroke-width:4;stroke-linecap:round;stroke-linejoin:round;stroke-miterlimit:10"
   id="XMLID_55_"
   class="st11"
   x1="415.10001"
   y1="604.29999"
   x2="415.10001"
   y2="631.79999" />
	</g>
	<g
   id="XMLID_52_">
		<line
   style="fill:none;stroke:#3a3842;stroke-width:4;stroke-linecap:round;stroke-linejoin:round;stroke-miterlimit:10"
   id="XMLID_53_"
   class="st11"
   x1="405.10001"
   y1="604.29999"
   x2="405.10001"
   y2="631.79999" />
	</g>
	<g
   id="XMLID_50_">
		<line
   style="fill:none;stroke:#3a3842;stroke-width:4;stroke-linecap:round;stroke-linejoin:round;stroke-miterlimit:10"
   id="XMLID_51_"
   class="st11"
   x1="395.10001"
   y1="604.29999"
   x2="395.10001"
   y2="631.79999" />
	</g>
	<g
   id="XMLID_48_">
		<line
   style="fill:none;stroke:#3a3842;stroke-width:4;stroke-linecap:round;stroke-linejoin:round;stroke-miterlimit:10"
   id="XMLID_49_"
   class="st11"
   x1="385.10001"
   y1="604.29999"
   x2="385.10001"
   y2="631.79999" />
	</g>
	<g
   id="XMLID_46_">
		<line
   style="fill:none;stroke:#3a3842;stroke-width:4;stroke-linecap:round;stroke-linejoin:round;stroke-miterlimit:10"
   id="XMLID_47_"
   class="st11"
   x1="375.10001"
   y1="604.29999"
   x2="375.10001"
   y2="631.79999" />
	</g>
	<g
   id="XMLID_44_">
		<line
   style="fill:none;stroke:#3a3842;stroke-width:4;stroke-linecap:round;stroke-linejoin:round;stroke-miterlimit:10"
   id="XMLID_45_"
   class="st11"
   x1="365.10001"
   y1="604.29999"
   x2="365.10001"
   y2="631.79999" />
	</g>
</g><rect
     height="6.8000002"
     width="6.8000002"
     class="st12"
     y="571.20001"
     x="359.79999"
     id="XMLID_12_"
     style="fill:#999999" /><rect
     height="6.8000002"
     width="6.8000002"
     class="st13"
     y="571.20001"
     x="368"
     id="XMLID_25_"
     style="fill:#999999" /><rect
     height="6.8000002"
     width="14.852328"
     class="st14"
     y="579.09998"
     x="359.79999"
     id="XMLID_26_"
     style="fill:#999999;stroke-width:1.4778924" /><line
     style="fill:none;stroke:#ffffff;stroke-width:8;stroke-linecap:round;stroke-linejoin:round;stroke-miterlimit:10"
     id="XMLID_36_"
     class="st16"
     x1="464"
     y1="355.79999"
     x2="519.29999"
     y2="355.79999" /><path
     style="fill:none;stroke:#ffffff;stroke-width:8;stroke-linecap:round;stroke-linejoin:round;stroke-miterlimit:10"
     inkscape:connector-curvature="0"
     id="XMLID_33_"
     class="st16"
     d="M 448,355.8" /><line
     style="fill:none;stroke:#ffffff;stroke-width:8;stroke-linecap:round;stroke-linejoin:round;stroke-miterlimit:10"
     id="XMLID_17_"
     class="st16"
     x1="432"
     y1="355.79999"
     x2="448"
     y2="355.79999" /><rect
     style="opacity:0.34000011;fill:#3a3842"
     id="XMLID_35_"
     x="378.10001"
     y="574.5"
     class="st17"
     width="24.799999"
     height="3.5999999" /><rect
     style="opacity:0.34000011;fill:#3a3842"
     id="XMLID_41_"
     x="378.10001"
     y="580.70001"
     class="st17"
     width="12.4"
     height="1.9" /><rect
     style="fill:#e8b5bb"
     id="XMLID_68_"
     x="405"
     y="632.5"
     class="st18"
     width="104"
     height="12" /><rect
     style="fill:#e8b5bb"
     id="XMLID_67_"
     x="343.20001"
     y="632.5"
     class="st18"
     width="20"
     height="12" /><rect
     style="fill:#e8b5bb"
     id="XMLID_66_"
     x="374.10001"
     y="632.5"
     class="st18"
     width="20"
     height="12" /><rect
     style="fill:#e8b5bb"
     id="XMLID_65_"
     x="519.90002"
     y="632.5"
     class="st18"
     width="20"
     height="12" /><rect
     style="fill:#e8b5bb"
     id="XMLID_64_"
     x="550.79999"
     y="632.5"
     class="st18"
     width="20"
     height="12" /><rect
     style="fill:#e8b5bb"
     id="XMLID_63_"
     x="581.79999"
     y="632.5"
     class="st18"
     width="20"
     height="12" /><rect
     style="fill:none;stroke:#3a3842;stroke-width:6;stroke-linecap:round;stroke-linejoin:round;stroke-miterlimit:10"
     id="XMLID_10_"
     x="405"
     y="632.5"
     class="st5"
     width="104"
     height="12" /><rect
     style="fill:none;stroke:#3a3842;stroke-width:6;stroke-linecap:round;stroke-linejoin:round;stroke-miterlimit:10"
     id="XMLID_19_"
     x="343.20001"
     y="632.5"
     class="st5"
     width="20"
     height="12" /><rect
     style="fill:none;stroke:#3a3842;stroke-width:6;stroke-linecap:round;stroke-linejoin:round;stroke-miterlimit:10"
     id="XMLID_20_"
     x="374.10001"
     y="632.5"
     class="st5"
     width="20"
     height="12" /><rect
     style="fill:none;stroke:#3a3842;stroke-width:6;stroke-linecap:round;stroke-linejoin:round;stroke-miterlimit:10"
     id="XMLID_21_"
     x="519.90002"
     y="632.5"
     class="st5"
     width="20"
     height="12" /><rect
     style="fill:none;stroke:#3a3842;stroke-width:6;stroke-linecap:round;stroke-linejoin:round;stroke-miterlimit:10"
     id="XMLID_22_"
     x="550.79999"
     y="632.5"
     class="st5"
     width="20"
     height="12" /><rect
     style="fill:none;stroke:#3a3842;stroke-width:6;stroke-linecap:round;stroke-linejoin:round;stroke-miterlimit:10"
     id="XMLID_23_"
     x="581.79999"
     y="632.5"
     class="st5"
     width="20"
     height="12" /><path
     style="fill:#f2ccd4"
     inkscape:connector-curvature="0"
     id="XMLID_62_"
     class="st19"
     d="m 620.8,662.5 h -296 c -2.2,0 -4,-1.8 -4,-4 v -10 c 0,-2.2 1.8,-4 4,-4 h 296 c 2.2,0 4,1.8 4,4 v 10 c 0,2.2 -1.8,4 -4,4 z" /><path
     style="fill:none;stroke:#3a3842;stroke-width:6;stroke-linecap:round;stroke-linejoin:round;stroke-miterlimit:10"
     inkscape:connector-curvature="0"
     id="XMLID_15_"
     class="st5"
     d="m 620.8,662.5 h -296 c -2.2,0 -4,-1.8 -4,-4 v -10 c 0,-2.2 1.8,-4 4,-4 h 296 c 2.2,0 4,1.8 4,4 v 10 c 0,2.2 -1.8,4 -4,4 z" /><path
     style="fill:#f2ccd4"
     inkscape:connector-curvature="0"
     id="XMLID_71_"
     class="st19"
     d="m 685.1,662.5 h -37.3 v -4.8 c 0,-7.3 5.9,-13.2 13.2,-13.2 h 11 c 7.3,0 13.2,5.9 13.2,13.2 v 4.8 z" /><path
     style="fill:none;stroke:#3a3842;stroke-width:6;stroke-linecap:round;stroke-linejoin:round;stroke-miterlimit:10"
     inkscape:connector-curvature="0"
     id="XMLID_70_"
     class="st5"
     d="m 685.1,662.5 h -37.3 v -4.8 c 0,-7.3 5.9,-13.2 13.2,-13.2 h 11 c 7.3,0 13.2,5.9 13.2,13.2 v 4.8 z" /><g
     id="XMLID_72_">
	<path
   style="fill:#edbec4"
   inkscape:connector-curvature="0"
   id="XMLID_14_"
   class="st3"
   d="m 646.4,591.5 h -91.3 c -0.7,0 -1.4,-0.6 -1.4,-1.4 v -8 c 0,-0.7 0.6,-1.4 1.4,-1.4 h 91.3 c 0.7,0 1.4,0.6 1.4,1.4 v 8 c 0,0.8 -0.6,1.4 -1.4,1.4 z" />
	<path
   style="fill:#edbec4"
   inkscape:connector-curvature="0"
   id="XMLID_13_"
   class="st3"
   d="m 612.6,595.5 h -23.7 c -0.7,0 -1.2,-0.6 -1.2,-1.2 V 578 c 0,-0.7 0.6,-1.2 1.2,-1.2 h 23.7 c 0.7,0 1.2,0.6 1.2,1.2 v 16.3 c 0.1,0.7 -0.5,1.2 -1.2,1.2 z" />
	<rect
   style="fill:#3a3842"
   id="XMLID_9_"
   x="557.79999"
   y="582.09998"
   class="st6"
   width="86"
   height="8" />
	<rect
   style="fill:#3a3842"
   id="XMLID_11_"
   x="588.79999"
   y="579.09998"
   class="st6"
   width="24"
   height="14" />
	<path
   style="fill:#33313a"
   inkscape:connector-curvature="0"
   id="XMLID_73_"
   class="st9"
   d="m 559.8,586.1 v 0 c 0,-1.1 0.9,-2 2,-2 h 78 c 1.1,0 2,0.9 2,2 v 0 c 0,1.1 -0.9,2 -2,2 h -78 c -1.1,0 -2,-0.9 -2,-2 z" />
</g><g
     id="XMLID_75_">
	<path
   style="fill:#edbec4"
   inkscape:connector-curvature="0"
   id="XMLID_80_"
   class="st3"
   d="m 646.4,616.8 h -91.3 c -0.7,0 -1.4,-0.6 -1.4,-1.4 v -8 c 0,-0.7 0.6,-1.4 1.4,-1.4 h 91.3 c 0.7,0 1.4,0.6 1.4,1.4 v 8 c 0,0.8 -0.6,1.4 -1.4,1.4 z" />
	<path
   style="fill:#edbec4"
   inkscape:connector-curvature="0"
   id="XMLID_79_"
   class="st3"
   d="m 612.6,620.9 h -23.7 c -0.7,0 -1.2,-0.6 -1.2,-1.2 v -16.3 c 0,-0.7 0.6,-1.2 1.2,-1.2 h 23.7 c 0.7,0 1.2,0.6 1.2,1.2 v 16.3 c 0.1,0.6 -0.5,1.2 -1.2,1.2 z" />
	<rect
   style="fill:#3a3842"
   id="XMLID_78_"
   x="557.79999"
   y="607.5"
   class="st6"
   width="86"
   height="8" />
	<rect
   style="fill:#3a3842"
   id="XMLID_77_"
   x="588.79999"
   y="604.5"
   class="st6"
   width="24"
   height="14" />
	<path
   style="fill:#33313a"
   inkscape:connector-curvature="0"
   id="XMLID_76_"
   class="st9"
   d="m 559.8,611.5 v 0 c 0,-1.1 0.9,-2 2,-2 h 78 c 1.1,0 2,0.9 2,2 v 0 c 0,1.1 -0.9,2 -2,2 h -78 c -1.1,0 -2,-0.9 -2,-2 z" />
</g><path
     style="enable-background:new 0 0 1000 1000;fill:#33313a"
     inkscape:connector-curvature="0"
     id="XMLID_40_"
     class="st9"
     d="m 578.8,339.5 h -7.6 c -4.7,63.9 -58,114.3 -123.1,114.3 h -41.3 v 5.7 c 0,12.1 9.9,22 22,22 h 150 c 12.1,0 22,-9.9 22,-22 v -98 c 0,-12.1 -9.9,-22 -22,-22 z" /></g><g
   inkscape:groupmode="layer"
   id="layer3"
   inkscape:label="text"
   style="display:inline"><g
     aria-label="403"
     transform="translate(7.4152542,-2.1186441)"
     style="font-style:normal;font-weight:normal;font-size:40px;line-height:1.25;font-family:sans-serif;letter-spacing:0px;word-spacing:0px;fill:#ff8080;fill-opacity:1;stroke:none"
     id="flowRoot739"><path
       d="m 457.14179,390.04053 h 12.69333 l -23.44533,31.28533 v 2.76267 h 14.18667 v -10.90134 h 11.2 v 30.61334 h -11.2 v -10.00534 h -24.64 v -15.60533 z"
       style="font-style:normal;font-variant:normal;font-weight:800;font-stretch:normal;font-size:74.66666412px;font-family:'JetBrains Mono';-inkscape-font-specification:'JetBrains Mono Ultra-Bold';fill:#ff8080"
       id="path1678" /><path
       d="m 480.55796,406.01919 q 0,-3.80799 1.344,-6.86933 1.344,-3.06133 3.808,-5.22666 2.464,-2.24 5.89866,-3.43467 3.50934,-1.19467 7.76534,-1.19467 4.256,0 7.69066,1.19467 3.50934,1.19467 5.97334,3.43467 2.464,2.16533 3.808,5.22666 1.344,3.06134 1.344,6.86933 v 21.728 q 0,3.73334 -1.41867,6.86934 -1.344,3.06133 -3.808,5.30133 -2.464,2.16533 -5.97333,3.43467 -3.43467,1.19466 -7.616,1.19466 -4.256,0 -7.76534,-1.19466 -3.43466,-1.19467 -5.89866,-3.36 -2.464,-2.24 -3.808,-5.30134 -1.344,-3.136 -1.344,-6.944 z m 10.82666,21.728 q 0,3.136 2.16534,5.07734 2.24,1.94133 5.824,1.94133 3.584,0 5.74933,-1.94133 2.24,-1.94134 2.24,-5.07734 v -21.728 q 0,-3.136 -2.24,-5.07733 -2.16533,-1.94133 -5.74933,-1.94133 -3.584,0 -5.824,1.94133 -2.16534,1.94133 -2.16534,5.07733 z m 4.62934,-15.68 q 0,-1.71733 0.896,-2.688 0.97066,-1.04533 2.464,-1.04533 1.49333,0 2.38933,1.04533 0.97067,0.97067 0.97067,2.688 v 10.45334 q 0,1.71733 -0.97067,2.76266 -0.896,0.97067 -2.38933,0.97067 -1.49334,0 -2.464,-0.97067 -0.896,-1.04533 -0.896,-2.76266 z"
       style="font-style:normal;font-variant:normal;font-weight:800;font-stretch:normal;font-size:74.66666412px;font-family:'JetBrains Mono';-inkscape-font-specification:'JetBrains Mono Ultra-Bold';fill:#ff8080"
       id="path1680" /><path
       d="m 544.14479,444.54719 q -4.10667,0 -7.46667,-0.97066 -3.36,-1.04534 -5.89866,-2.912 -2.464,-1.94134 -3.95734,-4.62934 -1.41866,-2.688 -1.71733,-6.048 h 11.2 q 0.37333,2.38934 2.53867,3.808 2.16533,1.41867 5.30133,1.41867 3.584,0 5.67466,-2.09067 2.16534,-2.16533 2.16534,-5.74933 0,-3.584 -2.24,-5.67467 -2.24,-2.16533 -5.97333,-2.16533 h -6.72 v -10.08 l 7.168,-6.272 q 0.97066,-0.82133 2.01599,-1.568 1.04534,-0.74666 1.86667,-1.26933 1.04533,-0.672 2.016,-1.19467 v -0.74666 q -1.12,0.29866 -2.464,0.448 -1.12,0.224 -2.688,0.37333 -1.49333,0.14933 -3.21066,0.14933 h -14.03734 v -9.33333 h 33.22667 v 10.08 l -9.632,7.76533 q -1.41867,1.12 -2.83734,1.86667 -0.672,0.448 -1.344,0.74666 3.73334,0.29867 6.72,1.64267 2.98667,1.344 5.00267,3.50933 2.09067,2.16534 3.21067,5.152 1.12,2.98667 1.12,6.57067 0,3.88267 -1.41867,7.09333 -1.344,3.136 -3.88267,5.376 -2.464,2.24 -5.97333,3.50934 -3.50933,1.19466 -7.76533,1.19466 z"
       style="font-style:normal;font-variant:normal;font-weight:800;font-stretch:normal;font-size:74.66666412px;font-family:'JetBrains Mono';-inkscape-font-specification:'JetBrains Mono Ultra-Bold';fill:#ff8080"
       id="path1682" /></g></g></svg>