<svg width="164" height="68" viewBox="0 0 164 68" fill="none" xmlns="http://www.w3.org/2000/svg">
<path d="M16.3614 21.8154H10.9077V27.2694H16.3614V21.8154ZM0 16.3617H5.45372V10.9077H0V16.3617ZM16.3614 0.000488975H10.9077V5.4544H16.3614V0.000488975ZM16.3614 10.9082H10.9077V16.3632H16.3614V10.9082ZM5.45351 0.137348V0H0V5.45397H0.136397L5.45351 0.137348ZM21.8171 35.5994C21.8171 40.7649 18.9373 43.6446 13.6344 43.6446V49.0845C22.0464 49.0845 27.2569 43.9189 27.2569 35.5987V21.8154H21.8171V35.5994ZM32.7918 30.6101H45.6073V33.9437L37.9872 35.6321C33.1815 36.6712 30.5838 39.0091 30.5838 42.6027C30.5838 46.8456 34.004 49.6166 38.9399 49.6166C40.2132 49.6264 41.474 49.3651 42.6385 48.85C43.803 48.3349 44.8446 47.5777 45.6939 46.629V49.0985H50.5877V26.3674H32.7932L32.7918 30.6101ZM45.6073 39.6155C45.6073 43.0793 42.8795 45.5902 39.5458 45.5902C37.2079 45.5902 35.7792 44.4646 35.7792 42.6462C35.7792 40.8279 37.1647 39.7021 39.4595 39.1393L45.6073 37.6672V39.6155ZM111.794 28.9215V26.367H102.529V30.6101H106.815V44.8545H102.529V49.0985H116.037V44.8556H111.794V36.3248C111.794 32.6881 113.959 30.3068 117.206 30.3068H119.53V25.8039H117.813C115.172 25.8046 113.05 26.8448 111.795 28.9219L111.794 28.9215ZM131.489 41.6506V30.4369H137.075V26.3672H131.489V18.6131H126.51V22.8613C126.51 25.5026 125.298 26.3685 122.224 26.3685V30.4383H126.51V41.6519C126.51 46.7607 129.454 49.6616 134.563 49.6616C135.448 49.6576 136.331 49.5852 137.204 49.445V45.4616C136.674 45.5476 136.139 45.591 135.602 45.5913C132.789 45.5909 131.49 44.3362 131.49 41.6511L131.489 41.6506ZM160.193 44.8552V34.0744C160.193 29.1821 156.34 25.8482 150.711 25.8482C146.642 25.8482 143.308 27.7102 141.793 30.957L145.819 33.1652C146.643 31.2169 148.547 30.0911 150.711 30.0911C153.396 30.0911 155.214 31.5632 155.214 33.7281V33.9446L147.594 35.633C142.789 36.672 140.191 39.0102 140.191 42.6038C140.191 46.7601 143.568 49.6175 148.547 49.6175C149.847 49.6334 151.133 49.3485 152.304 48.7853C153.476 48.222 154.501 47.3956 155.301 46.3704V49.0985H163.615V44.8556L160.193 44.8552ZM155.214 39.6162C155.214 42.9932 152.616 45.5911 149.153 45.5911C146.772 45.5911 145.386 44.5085 145.386 42.6469C145.386 40.8718 146.772 39.7464 149.066 39.14L155.214 37.6679V39.6162ZM76.498 26.3676H70.5938L61.3948 35.9792V15.5004H56.4158V49.0985H61.3948V42.7771L65.1181 38.7507L71.3961 49.0988H76.9373L68.4081 35.1572L76.498 26.3676ZM89.2272 25.8482C85.1574 25.8482 81.8238 27.71 80.3085 30.957L84.3349 33.1652C85.1583 31.2169 87.0628 30.0909 89.2272 30.0909C91.9119 30.0909 93.73 31.5632 93.73 33.7278V33.9446L86.1101 35.633C81.3044 36.672 78.7065 39.01 78.7065 42.6035C78.7065 46.7601 82.0837 49.6175 87.0628 49.6175C89.747 49.6175 92.1282 48.6219 93.8166 46.8035V49.0985H98.709V34.0748C98.7106 29.1814 94.8574 25.848 89.2287 25.848L89.2272 25.8482ZM93.73 39.6162C93.73 42.9932 91.1323 45.5909 87.6687 45.5909C85.3307 45.5909 83.9021 44.5085 83.9021 42.6469C83.9021 40.8718 85.2876 39.7462 87.5822 39.14L93.73 37.7112V39.6162ZM21.8156 16.3632H27.2693V10.9092H21.8156V16.3632Z" fill="white"/>
<path d="M13.6289 59.9805H14.7416V64.0306L16.7629 61.8981H18.0703L16.2437 63.9009L18.0703 66.8865H16.837L15.5111 64.6983L14.7416 65.5515V66.8867H13.6289V59.9805Z" fill="white"/>
<path d="M18.4657 64.3842C18.4647 63.8657 18.6176 63.3585 18.9051 62.927C19.1926 62.4955 19.6016 62.159 20.0805 61.9601C20.5593 61.7612 21.0864 61.7089 21.595 61.8099C22.1036 61.9108 22.5708 62.1603 22.9374 62.527C23.3041 62.8936 23.5536 63.3608 23.6546 63.8694C23.7555 64.378 23.7032 64.9051 23.5043 65.3839C23.3054 65.8628 22.9689 66.2719 22.5374 66.5593C22.1059 66.8468 21.5988 66.9997 21.0803 66.9988C20.7345 67.0076 20.3906 66.946 20.0694 66.8177C19.7482 66.6894 19.4564 66.4971 19.2119 66.2525C18.9673 66.008 18.775 65.7162 18.6468 65.395C18.5185 65.0738 18.4569 64.7299 18.4657 64.3842ZM22.5455 64.3933C22.5455 63.4753 21.9335 62.817 21.0803 62.817C20.2366 62.817 19.6246 63.4753 19.6246 64.3933C19.6246 65.3112 20.2366 65.9697 21.0803 65.9697C21.9335 65.9697 22.5455 65.3112 22.5455 64.3933Z" fill="white"/>
<path d="M25.1942 65.2105V62.8917H24.2949V61.8994H24.4431C24.5444 61.91 24.6467 61.8979 24.7427 61.8639C24.8386 61.8299 24.9258 61.7749 24.9978 61.7029C25.0698 61.631 25.1247 61.5438 25.1587 61.4479C25.1927 61.3519 25.2048 61.2496 25.1942 61.1483V60.3047H26.3069V61.8994H27.4937V62.8917H26.3069V65.2105C26.3069 65.7762 26.5851 66.0357 27.1877 66.0357C27.2995 66.0352 27.4111 66.0259 27.5215 66.0079V66.898C27.3313 66.9276 27.1392 66.9431 26.9467 66.9443C25.834 66.9434 25.1942 66.313 25.1942 65.2105Z" fill="white"/>
<path d="M32.6083 63.5583V66.8868H31.5512V66.3398C31.3722 66.5525 31.1475 66.7221 30.8939 66.8361C30.6403 66.9501 30.3642 67.0054 30.0863 66.9981C29.0199 66.9981 28.2969 66.3954 28.2969 65.5053C28.2969 64.7729 28.8439 64.2907 29.8822 64.0588L31.4956 63.7065V63.5583C31.4956 63.0945 31.1246 62.7794 30.587 62.7794C30.3404 62.773 30.0981 62.8437 29.8936 62.9817C29.6892 63.1196 29.5329 63.3179 29.4465 63.5489L28.4822 63.0667C28.7695 62.3156 29.5856 61.7871 30.587 61.7871C31.7834 61.7871 32.6083 62.5104 32.6083 63.5583ZM31.4956 64.8748V64.5504L30.0956 64.8655C29.7062 64.9489 29.4558 65.1808 29.4558 65.5053C29.4558 65.8854 29.7431 66.1173 30.2254 66.1173C30.3914 66.1232 30.5569 66.0954 30.7118 66.0355C30.8667 65.9756 31.0078 65.8848 31.1266 65.7687C31.2454 65.6526 31.3394 65.5136 31.4028 65.3601C31.4662 65.2066 31.4978 65.0418 31.4956 64.8757V64.8748Z" fill="white"/>
<path d="M36.1562 59.9805H37.2689V64.0306L39.2903 61.8981H40.5977L38.7711 63.9009L40.5977 66.8865H39.3644L38.0385 64.6983L37.2689 65.5515V66.8867H36.1562V59.9805Z" fill="white"/>
<path d="M40.993 64.3837C40.9921 63.8653 41.145 63.3582 41.4325 62.9268C41.72 62.4953 42.129 62.1589 42.6078 61.96C43.0866 61.7612 43.6136 61.709 44.1221 61.8099C44.6307 61.9108 45.0978 62.1603 45.4644 62.5269C45.831 62.8935 46.0805 63.3607 46.1814 63.8692C46.2824 64.3777 46.2301 64.9048 46.0313 65.3836C45.8325 65.8624 45.496 66.2714 45.0645 66.5588C44.6331 66.8463 44.126 66.9992 43.6076 66.9983C43.2618 67.0072 42.9179 66.9456 42.5967 66.8173C42.2755 66.689 41.9837 66.4968 41.7391 66.2522C41.4946 66.0076 41.3023 65.7159 41.174 65.3946C41.0458 65.0734 40.9842 64.7295 40.993 64.3837ZM45.0726 64.3928C45.0726 63.4749 44.4608 62.8166 43.6076 62.8166C42.764 62.8166 42.152 63.4749 42.152 64.3928C42.152 65.3108 42.764 65.9693 43.6076 65.9693C44.4608 65.9693 45.0726 65.3108 45.0726 64.3928Z" fill="white"/>
<path d="M47.2852 59.9805H48.3978V66.888H47.2852V59.9805Z" fill="white"/>
<path d="M53.7529 63.5583V66.8868H52.6958V66.3398C52.5168 66.5525 52.2921 66.7221 52.0385 66.8361C51.7848 66.9501 51.5088 67.0054 51.2308 66.9981C50.1647 66.9981 49.4414 66.3954 49.4414 65.5053C49.4414 64.7729 49.9884 64.2907 51.0268 64.0588L52.6402 63.7065V63.5583C52.6402 63.0945 52.2694 62.7794 51.7315 62.7794C51.485 62.7731 51.2426 62.8438 51.0382 62.9817C50.8338 63.1197 50.6775 63.318 50.591 63.5489L49.6268 63.0667C49.9141 62.3156 50.7301 61.7871 51.7315 61.7871C52.9277 61.7871 53.7529 62.5104 53.7529 63.5583ZM52.6402 64.8748V64.5504L51.2402 64.8655C50.8507 64.9489 50.6004 65.1808 50.6004 65.5053C50.6004 65.8854 50.8879 66.1173 51.3699 66.1173C51.5359 66.1232 51.7014 66.0954 51.8563 66.0355C52.0112 65.9756 52.1524 65.8848 52.2712 65.7687C52.39 65.6526 52.4839 65.5136 52.5473 65.3601C52.6108 65.2066 52.6424 65.0418 52.6402 64.8757V64.8748Z" fill="white"/>
<path d="M60.1204 64.3841C60.1204 65.8675 59.0265 66.9987 57.5893 66.9987C57.2806 67.0108 56.973 66.9538 56.6891 66.8319C56.4051 66.71 56.152 66.5263 55.9481 66.2941V66.8874H54.9004V59.9805H56.0131V62.456C56.2106 62.2357 56.4542 62.0616 56.7267 61.9463C56.9991 61.8309 57.2937 61.777 57.5893 61.7884C57.9279 61.786 58.2634 61.852 58.5758 61.9824C58.8882 62.1128 59.1711 62.305 59.4075 62.5474C59.6438 62.7898 59.8288 63.0774 59.9513 63.393C60.0739 63.7086 60.1314 64.0457 60.1204 64.3841ZM58.9615 64.3932C58.9615 63.4752 58.3404 62.817 57.478 62.817C56.6251 62.817 56.0131 63.4752 56.0131 64.3932C56.0131 65.3112 56.6251 65.9696 57.478 65.9696C58.3404 65.9696 58.9615 65.3112 58.9615 64.3932Z" fill="white"/>
<path d="M60.8973 64.3842C60.8963 63.8657 61.0493 63.3585 61.3367 62.927C61.6242 62.4955 62.0332 62.159 62.5121 61.9601C62.9909 61.7612 63.5181 61.7089 64.0266 61.8099C64.5352 61.9108 65.0024 62.1603 65.3691 62.527C65.7357 62.8936 65.9853 63.3608 66.0862 63.8694C66.1871 64.378 66.1348 64.9051 65.9359 65.3839C65.7371 65.8628 65.4006 66.2719 64.9691 66.5593C64.5375 66.8468 64.0304 66.9997 63.5119 66.9988C63.1662 67.0076 62.8222 66.946 62.501 66.8177C62.1798 66.6894 61.8881 66.4971 61.6435 66.2525C61.3989 66.008 61.2067 65.7162 61.0784 65.395C60.9501 65.0738 60.8885 64.7299 60.8973 64.3842ZM64.9769 64.3933C64.9769 63.4753 64.3651 62.817 63.5119 62.817C62.6683 62.817 62.0563 63.4753 62.0563 64.3933C62.0563 65.3112 62.6683 65.9697 63.5119 65.9697C64.3645 65.9697 64.9769 65.3112 64.9769 64.3933Z" fill="white"/>
<path d="M70.0453 61.8438V62.836H69.4518C68.7563 62.836 68.3021 63.2902 68.3021 64.0691V66.8878H67.1895V61.8994H68.2372V62.5857C68.4875 62.0572 68.9604 61.8438 69.5817 61.8438H70.0453Z" fill="white"/>
<path d="M74.8544 63.5583V66.8868H73.7976V66.3398C73.6185 66.5525 73.3938 66.7221 73.1401 66.8361C72.8864 66.9501 72.6104 67.0054 72.3324 66.9981C71.2662 66.9981 70.543 66.3954 70.543 65.5053C70.543 64.7729 71.09 64.2907 72.1286 64.0588L73.7419 63.7065V63.5583C73.7419 63.0945 73.371 62.7794 72.8333 62.7794C72.5868 62.773 72.3444 62.8437 72.1399 62.9817C71.9355 63.1196 71.7792 63.3179 71.6928 63.5489L70.7283 63.0667C71.0159 62.3156 71.8317 61.7871 72.8333 61.7871C74.0292 61.7871 74.8544 62.5104 74.8544 63.5583ZM73.7417 64.8748V64.5504L72.3415 64.8655C71.9521 64.9489 71.7017 65.1808 71.7017 65.5053C71.7017 65.8854 71.9892 66.1173 72.4712 66.1173C72.6373 66.1233 72.8028 66.0955 72.9577 66.0356C73.1127 65.9757 73.2539 65.8849 73.3727 65.7688C73.4915 65.6527 73.5855 65.5137 73.649 65.3602C73.7125 65.2066 73.7441 65.0418 73.7419 64.8757L73.7417 64.8748Z" fill="white"/>
<path d="M75.6875 65.5981L76.5496 65.1808C76.6525 65.4525 76.837 65.6857 77.0778 65.8484C77.3185 66.0111 77.6037 66.0953 77.8942 66.0894C78.3856 66.0894 78.7194 65.8575 78.7194 65.524C78.7194 65.2364 78.5062 65.0695 78.0611 64.9489L77.2081 64.7173C76.3549 64.4854 75.9007 63.994 75.9007 63.2892C75.9007 62.39 76.6424 61.7871 77.7551 61.7871C78.7287 61.7871 79.5076 62.2693 79.8136 63.076L78.9512 63.4746C78.8549 63.2405 78.6879 63.0422 78.4734 62.9076C78.259 62.773 78.0078 62.7087 77.7551 62.7238C77.2822 62.7238 76.9947 62.9276 76.9947 63.2429C76.9947 63.5118 77.1894 63.688 77.6067 63.7993L78.4968 64.0496C79.3592 64.3 79.8227 64.8007 79.8227 65.4868C79.8227 66.3861 79.0347 66.9981 77.8942 66.9981C76.8371 66.9981 76.0026 66.4604 75.6875 65.5981Z" fill="white"/>
<path d="M80.6992 59.9805H81.8119V61.232H80.6992V59.9805ZM80.6992 61.8996H81.8119V66.888H80.6992V61.8996Z" fill="white"/>
</svg>
